<?xml version="1.0" standalone="no"?>
<!DOCTYPE svg PUBLIC "-//W3C//DTD SVG 20010904//EN"
 "http://www.w3.org/TR/2001/REC-SVG-20010904/DTD/svg10.dtd">
<svg version="1.0" xmlns="http://www.w3.org/2000/svg"
 width="1120.000000pt" height="1120.000000pt" viewBox="0 0 1120.000000 1120.000000"
 preserveAspectRatio="xMidYMid meet">
<metadata>
Created by potrace 1.14, written by Peter Selinger 2001-2017
</metadata>
<g transform="translate(0.000000,1120.000000) scale(0.100000,-0.100000)"
fill="#000000" stroke="none">
<path d="M6245 9260 c-92 -8 -256 -40 -309 -60 -17 -6 -63 -15 -103 -20 -171
-22 -336 -70 -533 -155 -47 -20 -110 -45 -140 -55 -168 -57 -209 -73 -250 -98
-25 -16 -90 -47 -145 -71 -55 -23 -109 -48 -120 -55 -11 -7 -42 -20 -69 -30
-83 -31 -306 -150 -396 -211 -46 -31 -102 -66 -124 -77 -21 -11 -62 -42 -90
-68 -144 -137 -267 -246 -321 -286 -125 -93 -440 -401 -495 -484 -14 -20 -45
-62 -69 -91 -24 -30 -49 -65 -55 -79 -6 -14 -36 -63 -68 -110 -54 -81 -78
-135 -135 -300 -17 -50 -38 -88 -63 -115 -21 -22 -61 -73 -89 -112 -56 -78
-206 -217 -257 -239 -61 -26 -214 -135 -288 -207 -41 -39 -97 -91 -124 -114
-56 -47 -138 -157 -154 -206 -6 -17 -15 -37 -19 -43 -20 -26 -57 -144 -63
-203 -3 -36 -15 -77 -26 -96 -11 -17 -33 -74 -50 -125 -17 -52 -35 -99 -39
-104 -5 -6 -19 -35 -31 -65 -11 -30 -68 -116 -125 -191 -137 -182 -138 -183
-189 -345 -46 -144 -59 -199 -77 -320 -5 -38 -14 -90 -20 -114 -5 -23 -12
-206 -15 -405 l-6 -361 35 -110 c20 -61 50 -132 67 -158 16 -26 30 -52 30 -56
0 -5 20 -36 45 -69 67 -92 140 -212 154 -254 7 -20 31 -58 54 -84 23 -26 57
-68 77 -94 88 -119 148 -186 212 -238 100 -82 210 -156 318 -214 52 -28 131
-75 175 -103 44 -29 114 -67 155 -85 41 -18 112 -52 157 -76 45 -23 98 -46
117 -50 20 -3 36 -9 36 -13 0 -4 -26 -15 -57 -25 -82 -26 -205 -91 -257 -137
-105 -92 -134 -229 -75 -347 86 -173 336 -275 894 -367 499 -81 1035 -129
1865 -167 363 -16 1687 -16 2050 0 830 38 1366 86 1865 167 439 72 692 154
819 266 64 57 106 145 106 224 0 49 -6 75 -31 123 -68 136 -224 221 -558 302
-437 106 -1285 196 -2148 228 -105 4 -195 10 -198 14 -12 11 25 81 88 167 35
47 79 111 97 141 18 30 45 68 59 83 14 16 55 70 91 122 137 196 267 361 309
390 24 16 63 55 87 86 24 31 67 72 96 89 97 60 250 231 356 401 23 36 42 71
42 78 0 6 37 36 83 65 45 30 96 69 113 87 84 92 314 422 314 452 0 5 16 31 35
57 19 26 48 76 64 111 17 35 39 80 50 99 72 131 130 265 186 432 35 106 67
211 70 233 12 74 27 110 74 175 42 58 66 95 124 195 10 17 31 59 48 95 17 36
45 77 64 92 66 55 225 283 284 408 15 30 36 71 47 90 12 19 41 96 64 170 49
158 52 166 98 290 34 92 36 100 39 260 l4 165 -51 140 c-29 77 -65 181 -81
232 -16 50 -45 114 -63 141 -18 27 -43 70 -55 96 -57 117 -398 364 -556 402
-44 11 -139 78 -209 148 -42 43 -77 68 -111 80 -27 10 -70 31 -95 46 -25 15
-56 31 -70 35 -13 4 -47 25 -75 46 -28 21 -77 48 -110 60 -33 13 -72 31 -86
40 -82 57 -550 239 -614 239 -11 0 -119 32 -240 71 -145 47 -247 74 -300 80
-44 5 -123 16 -175 24 -183 30 -712 44 -945 25z m585 -1425 c333 -97 642 -188
687 -202 l83 -25 -23 -28 c-74 -93 -3213 -3460 -3221 -3457 -6 3 -323 96 -704
208 l-692 203 49 51 c49 51 1479 1600 1560 1690 24 28 148 158 275 289 127
131 246 260 264 285 l34 46 -6 -35 c-22 -144 -97 -853 -90 -860 12 -10 366
-150 381 -150 7 0 14 8 16 18 3 9 34 264 68 566 35 301 68 555 74 562 11 15
346 137 354 128 4 -4 -52 -619 -68 -739 -7 -49 -17 -62 -350 -445 -189 -217
-349 -401 -356 -408 -9 -10 -62 5 -273 77 -144 49 -262 85 -262 80 0 -5 1 -9
3 -9 1 0 120 -40 263 -89 l261 -89 492 565 493 566 -112 53 c-90 43 -111 57
-107 71 13 45 40 394 31 402 -5 5 -90 42 -189 81 l-179 73 -63 -21 -63 -20
127 133 c71 73 232 243 358 377 209 223 232 244 255 238 14 -4 297 -87 630
-185z m820 -453 c18 -95 31 -174 29 -175 -2 -1 -40 -19 -84 -41 -340 -163
-867 -650 -1555 -1436 -433 -496 -1072 -1295 -1492 -1870 -58 -79 -100 -127
-102 -119 -3 8 -21 93 -39 189 l-34 175 42 45 c23 25 716 772 1540 1660 824
888 1532 1650 1574 1692 49 51 78 74 82 65 3 -6 21 -90 39 -185z m-1720 -231
c0 -6 -347 -131 -366 -131 -13 0 -339 116 -361 129 -11 6 18 20 93 46 60 21
149 53 198 70 l90 32 173 -70 c95 -38 173 -72 173 -76z m-505 -101 c66 -24
123 -46 128 -49 5 -6 -116 -1107 -126 -1132 -1 -4 -86 27 -188 67 l-185 74 22
193 c12 105 42 359 65 563 l43 372 60 -23 c34 -12 115 -42 181 -65z m646 -401
l47 -24 -112 -127 c-80 -92 -112 -122 -114 -109 -2 10 4 85 12 166 9 81 16
151 16 156 0 9 70 -20 151 -62z m-2401 -2340 c377 -110 686 -202 687 -202 4
-5 73 -381 70 -384 -2 -2 -73 30 -158 71 -290 140 -615 257 -858 308 -80 17
-141 22 -248 23 l-141 0 -36 186 c-20 103 -36 192 -36 199 0 6 8 9 18 6 9 -3
325 -96 702 -207z"/>
<path d="M6224 7697 c-152 -39 -218 -136 -140 -205 110 -96 392 -82 486 25 82
93 -14 178 -215 189 -47 2 -101 -2 -131 -9z m208 -57 c20 -6 47 -19 60 -30 22
-18 22 -20 8 -47 -9 -15 -36 -39 -60 -53 -38 -21 -58 -25 -130 -25 -179 1
-227 82 -87 146 47 21 149 25 209 9z"/>
<path d="M6644 7494 c-71 -63 -129 -118 -129 -122 0 -4 19 -11 42 -16 l42 -9
89 82 c49 44 92 81 95 81 3 0 22 -50 42 -110 21 -63 44 -114 53 -119 47 -25
60 -18 198 104 l134 120 -42 12 c-49 15 -43 18 -156 -85 l-80 -73 -20 53 c-11
29 -29 83 -41 119 -20 60 -25 67 -53 73 -17 3 -34 6 -38 6 -4 0 -65 -52 -136
-116z"/>
<path d="M4875 5963 c-87 -98 -174 -195 -193 -215 -20 -21 -33 -40 -30 -43 3
-3 92 91 198 210 105 119 190 219 187 221 -3 3 -76 -75 -162 -173z"/>
<path d="M3523 4860 c-110 -22 -179 -103 -143 -170 30 -57 186 -101 281 -81
157 34 202 158 80 221 -31 16 -151 43 -171 39 -3 -1 -24 -5 -47 -9z m156 -58
c54 -21 69 -41 56 -79 -15 -43 -86 -75 -155 -71 -117 9 -169 62 -114 119 47
49 133 62 213 31z"/>
<path d="M3870 4673 c-121 -137 -117 -131 -75 -139 33 -6 38 -3 75 39 l39 44
90 -25 c74 -21 93 -23 105 -12 9 7 16 15 16 19 0 3 -38 17 -85 30 -47 13 -85
26 -85 30 0 4 10 17 23 29 l22 21 100 -29 c92 -27 101 -28 117 -13 10 9 17 18
15 20 -3 2 -92 29 -254 77 -13 3 -40 -20 -103 -91z"/>
<path d="M4200 4557 l-99 -112 36 -9 c35 -9 39 -7 77 37 l41 45 88 -26 c61
-18 93 -23 103 -17 29 19 15 30 -63 53 -43 12 -82 23 -87 25 -5 2 2 15 15 30
l24 28 100 -30 c98 -29 100 -30 119 -11 18 18 17 19 -55 40 -41 12 -102 30
-137 40 l-63 18 -99 -111z"/>
</g>
</svg>
